<?xml version="1.0" encoding="UTF-8"?>
<svg width="127px" height="32px" viewBox="0 0 127 32" version="1.1" xmlns="http://www.w3.org/2000/svg" xmlns:xlink="http://www.w3.org/1999/xlink">
    <title>logo</title>
    <defs>
        <linearGradient x1="88.8160246%" y1="72.2222222%" x2="7.52546385%" y2="32.281499%" id="linearGradient-1">
            <stop stop-color="#5F4AFF" offset="0%"></stop>
            <stop stop-color="#3DABFF" offset="100%"></stop>
        </linearGradient>
        <polygon id="path-2" points="0.648942087 0.567916873 10.0806286 0.567916873 10.0806286 10.411578 0.648942087 10.411578"></polygon>
        <polygon id="path-4" points="0.0987665424 0.567916873 9.53045307 0.567916873 9.53045307 10.411578 0.0987665424 10.411578"></polygon>
        <polygon id="path-6" points="0 13.882104 87.4439282 13.882104 87.4439282 0.447003748 0 0.447003748"></polygon>
    </defs>
    <g id="logo" stroke="none" stroke-width="1" fill="none" fill-rule="evenodd">
        <g transform="translate(0.000000, 4.000000)">
            <path d="M25.7167705,0.380927951 C23.7601138,1.11809408 22.568054,2.89364158 22.5559627,5.17215506 L22.5559627,5.17215506 C22.5374701,8.58428191 22.5452939,11.9964088 22.5552514,15.4085356 L22.5552514,15.4085356 C22.5573852,16.1372367 22.3774382,16.6860551 21.5153997,16.6994581 L21.5153997,16.6994581 C20.6028623,16.7135666 20.4037114,16.14288 20.4044227,15.3753808 L20.4044227,15.3753808 C20.4129577,11.8031231 20.4172253,8.23227627 20.405134,4.6600186 L20.405134,4.6600186 C20.3973102,2.09510373 18.3809082,0.0853560779 15.8424467,0.0818289672 L15.8424467,0.0818289672 C13.2819363,0.0797127008 11.3395047,2.05489467 11.3352372,4.67553788 L11.3352372,4.67553788 C11.3309697,8.15115272 11.3352372,11.627473 11.3316809,15.1030878 L11.3316809,15.1030878 C11.3309697,15.4191169 11.3395047,15.7492545 11.2584219,16.0497643 L11.2584219,16.0497643 C11.1047913,16.6148075 10.6801733,16.8983871 10.0997909,16.8391317 L10.0997909,16.8391317 C9.56990754,16.7848142 9.20930233,16.4913586 9.18085221,15.9136179 L9.18085221,15.9136179 C9.16378214,15.5637285 9.14457831,15.2138391 9.14457831,14.8632443 L9.14457831,14.8632443 C9.14244455,11.6105429 9.14600082,8.35784141 9.14244455,5.10513996 L9.14244455,5.10513996 C9.14102205,3.97082118 8.93760372,2.89081989 8.19861198,1.97094943 L8.19861198,1.97094943 C6.92902558,0.38727675 4.92186995,-0.198929041 3.01428972,0.459935229 L3.01428972,0.459935229 C1.17427851,1.09481515 0.0213375865,2.80405297 0.00995754036,5.01484593 L0.00995754036,5.01484593 C0.00355626441,6.52868182 0.000711252883,8.04181229 0,9.55494276 L0,9.55494276 L0,10.8557412 C0.000711252883,12.9586045 0.0042675173,15.0614679 0.00569002306,17.1643313 L0.00569002306,17.1643313 C0.00640127594,19.1797223 0.914671207,20.6103184 2.76890747,21.4772822 L2.76890747,21.4772822 C3.50932172,21.8243499 4.22341962,21.9992946 4.91262366,22 L4.91262366,22 L4.91902494,22 C5.95318663,21.9992946 6.93044809,21.6049636 7.85507684,20.8099529 L7.85507684,20.8099529 C8.98881393,19.8329432 10.1012134,18.8333601 11.2441968,17.8253118 L11.2441968,17.8253118 C11.8857469,21.5379485 16.6397612,23.2224966 19.5580318,20.4128002 L19.5580318,20.4128002 C22.6242429,17.4606086 25.7174817,14.5338122 28.7751579,11.5717446 L28.7751579,11.5717446 C29.9465914,10.4374259 31.1863051,9.36024626 32.0888851,7.98396768 L32.0888851,7.98396768 C32.69914,7.05351589 33,6.02007247 33,5.01272966 L33,5.01272966 L33,5.01202424 C33,3.83326386 32.5881846,2.69118543 31.7787788,1.79036137 L31.7787788,1.79036137 C30.7289695,0.621476897 29.2851262,0 27.7694463,0 L27.7694463,0 C27.0894885,0 26.396017,0.124859717 25.7167705,0.380927951" id="Fill-1" fill="url(#linearGradient-1)"></path>
            <g id="marshalling" transform="translate(39.000000, 4.000000)">
                <polygon id="Fill-1" fill="#E9F6FF" points="15.3811491 0.91594122 13.2525598 9.99691953 10.8211556 0.91594122 7.49167176 0.91594122 4.95661448 9.8462987 2.86578452 0.91594122 -0.000222113664 0.91594122 3.31075223 13.9165316 6.34778639 13.9165316 9.10051506 4.19697649 11.8621283 13.9165316 14.831788 13.9165316 18.1997715 0.91594122"></polygon>
                <g transform="translate(0.000000, 0.247379)">
                    <g transform="translate(18.509472, 3.470526)">
                        <mask id="mask-3" fill="white">
                            <use xlink:href="#path-2"></use>
                        </mask>
                        <g id="Clip-3"></g>
                        <path d="M6.89329755,5.67583703 C6.55198288,5.78203512 6.01298706,5.90975048 5.27482932,6.05690078 C4.53741196,6.2054393 4.05468493,6.34981318 3.82738861,6.49210474 C3.4808913,6.72254767 3.30764264,7.01476596 3.30764264,7.36945371 C3.30764264,7.71858863 3.44609349,8.01983028 3.72373557,8.27456689 C4.00137765,8.52860939 4.35379799,8.65563065 4.78321774,8.65563065 C5.26224288,8.65563065 5.71979702,8.50778624 6.1551398,8.21209742 C6.47720462,7.98790144 6.6882126,7.71303579 6.78890412,7.38750045 C6.85849974,7.17441015 6.89329755,6.76974682 6.89329755,6.17281635 L6.89329755,5.67583703 Z M3.33577704,3.65390859 L0.923622651,3.24646883 C1.1953417,2.33580281 1.66178039,1.66182667 2.32367911,1.22384629 C2.98631821,0.786560011 3.96954136,0.567916873 5.27482932,0.567916873 C6.46091628,0.567916873 7.3434479,0.699796861 7.92464532,0.962168626 C8.50436199,1.2252345 8.91231075,1.5597932 9.14923199,1.96445653 C9.38541285,2.36981397 9.50313309,3.11320064 9.50313309,4.19461654 L9.4749987,7.10361142 C9.4749987,7.93167892 9.51794067,8.54179739 9.60308424,8.93466094 C9.68822781,9.32821858 9.84740927,9.74954044 10.0806286,10.1986265 L7.45154322,10.1986265 C7.38120723,10.0334295 7.29680404,9.78771622 7.19537213,9.46287499 C7.15168978,9.31503058 7.12059386,9.21785586 7.10060363,9.1699626 C6.64675138,9.5836493 6.16180321,9.89460842 5.64427838,10.1007577 C5.12675354,10.3082951 4.57517128,10.4117168 3.98879121,10.4117168 C2.95448191,10.4117168 2.13932477,10.1486509 1.54331977,9.62251919 C0.947314775,9.09638745 0.648942087,8.43074056 0.648942087,7.62696674 C0.648942087,7.09458805 0.7851718,6.6205142 1.05615047,6.20335698 C1.32712914,5.78689386 1.70768388,5.46760547 2.19633394,5.24549181 C2.684984,5.02407225 3.38982469,4.8304169 4.31085602,4.66452575 C5.5524714,4.44657672 6.41353203,4.24250979 6.89329755,4.05301907 L6.89329755,3.80452941 C6.89329755,3.32559683 6.76669276,2.98479117 6.51422356,2.78072425 C6.26175436,2.57665732 5.78569074,2.47462385 5.0860327,2.47462385 C4.6129306,2.47462385 4.24422192,2.56208111 3.97916628,2.73630151 C3.71485102,2.91052192 3.50014115,3.21662231 3.33577704,3.65390859 L3.33577704,3.65390859 Z" id="Fill-2" fill="#E9F6FF" mask="url(#mask-3)"></path>
                    </g>
                    <path d="M36.2091915,4.25139434 L36.2091915,6.23792342 L34.3930421,6.23792342 L34.3930421,10.0332906 C34.3930421,10.8023592 34.4100709,11.2500571 34.4448687,11.3770783 C34.4796665,11.5040996 34.5581466,11.6089094 34.6817899,11.691508 C34.8046928,11.7741065 34.9542493,11.8157528 35.1304595,11.8157528 C35.3762653,11.8157528 35.7323875,11.7359307 36.1988262,11.5762865 L36.4261225,13.5093695 C35.8086466,13.7578591 35.1089885,13.882104 34.326408,13.882104 C33.8473829,13.882104 33.415742,13.8071406 33.030745,13.6558257 C32.6464884,13.5052048 32.364404,13.3101613 32.1837516,13.070695 C32.0038395,12.8312287 31.8794559,12.5077757 31.8106006,12.0996418 C31.7535914,11.8102 31.7247167,11.2243752 31.7247167,10.3435557 L31.7247167,6.23792342 L30.5045723,6.23792342 L30.5045723,4.25139434 L31.7247167,4.25139434 L31.7247167,2.38008673 L34.3930421,0.92524223 L34.3930421,4.25139434 L36.2091915,4.25139434 Z" id="Fill-4" fill="#E9F6FF"></path>
                    <path d="M44.9910475,8.15337612 C44.9725381,7.43220082 44.7726358,6.88385772 44.3950425,6.5083468 C44.0167089,6.13283589 43.5569336,5.94473338 43.0142359,5.94473338 C42.4330385,5.94473338 41.9540134,6.14324747 41.5756798,6.53888743 C41.1980865,6.9352215 41.0115111,7.47384713 41.0174341,8.15337612 L44.9910475,8.15337612 Z M44.8392699,10.6715898 L47.4883455,11.088747 C47.1470308,11.999413 46.6102561,12.6928241 45.8750599,13.1682862 C45.1398637,13.6444423 44.2217939,13.8818263 43.117889,13.8818263 C41.3705948,13.8818263 40.0778933,13.3466712 39.239044,12.2770551 C38.5778857,11.4198352 38.2469363,10.3377252 38.2469363,9.0314192 C38.2469363,7.47037661 38.6815387,6.24805735 39.5514839,5.36376733 C40.4214291,4.48017141 41.5216321,4.03872051 42.8528333,4.03872051 C44.3476583,4.03872051 45.5270818,4.50099457 46.391104,5.4262368 C47.2551261,6.35147903 47.6675172,7.76884184 47.6297578,9.67832524 L40.9707902,9.67832524 C40.9900401,10.4175473 41.2040096,10.9922664 41.6134391,11.4038708 C42.023609,11.8140869 42.5344704,12.0195421 43.1460234,12.0195421 C43.5621163,12.0195421 43.9123155,11.913344 44.1958806,11.7002537 C44.4801861,11.4878575 44.694896,11.1449695 44.8392699,10.6715898 L44.8392699,10.6715898 Z" id="Fill-6" fill="#E9F6FF"></path>
                    <path d="M53.3094263,13.6692913 L50.6507258,13.6692913 L50.6507258,4.25167198 L53.1206297,4.25167198 L53.1206297,5.59060091 C53.5426457,4.95757697 53.92246,4.54111385 54.2600728,4.33982334 C54.5969452,4.13922694 54.9804615,4.03858169 55.4098812,4.03858169 C56.0147708,4.03858169 56.5981893,4.19544946 57.1593965,4.50849091 L56.3368356,6.68104018 C55.888166,6.40964504 55.472073,6.27290632 55.087076,6.27290632 C54.7154058,6.27290632 54.4007448,6.36938694 54.1416122,6.56165408 C53.8824796,6.75392122 53.6803562,7.10097382 53.53154,7.60350599 C53.3842046,8.10603815 53.3094263,9.15830163 53.3094263,10.7602964 L53.3094263,13.6692913 Z" id="Fill-8" fill="#E9F6FF"></path>
                    <path d="M58.1095988,4.25139434 L59.5844335,4.25139434 L59.5844335,3.54201883 C59.5844335,2.74935069 59.6740193,2.15797306 59.8546718,1.76788594 C60.0345838,1.37779882 60.3655332,1.05989864 60.8475199,0.814879503 C61.3302469,0.569166263 61.9403191,0.447003748 62.6777364,0.447003748 C63.435144,0.447003748 64.1755229,0.553201843 64.9010942,0.766292139 L64.5420105,2.50433156 C64.1192541,2.40993325 63.7120457,2.36203999 63.3211257,2.36203999 C62.936869,2.36203999 62.6599673,2.44672082 62.4941225,2.61538839 C62.3260565,2.78336185 62.243134,3.10750897 62.243134,3.58644156 L62.243134,4.25139434 L64.2295706,4.25139434 L64.2295706,6.21085332 L62.243134,6.21085332 L62.243134,13.6690137 L59.5844335,13.6690137 L59.5844335,6.21085332 L58.1095988,6.21085332 L58.1095988,4.25139434 Z" id="Fill-10" fill="#E9F6FF"></path>
                    <g transform="translate(65.893720, 3.470526)">
                        <mask id="mask-5" fill="white">
                            <use xlink:href="#path-4"></use>
                        </mask>
                        <g id="Clip-13"></g>
                        <path d="M6.34238162,5.67583703 C6.00180734,5.78203512 5.46281152,5.90975048 4.7239134,6.05690078 C3.98649603,6.2054393 3.50450938,6.34981318 3.27721307,6.49210474 C2.93071575,6.72254767 2.75746709,7.01476596 2.75746709,7.36945371 C2.75746709,7.71858863 2.89591794,8.01983028 3.17356002,8.27456689 C3.4512021,8.52860939 3.80362245,8.65563065 4.23230182,8.65563065 C4.71206733,8.65563065 5.16962148,8.50778624 5.60496426,8.21209742 C5.92628869,7.98790144 6.13729667,7.71303579 6.2379882,7.38750045 C6.30758382,7.17441015 6.34238162,6.76974682 6.34238162,6.17281635 L6.34238162,5.67583703 Z M2.78486111,3.65390859 L0.372706727,3.24646883 C0.645166155,2.33580281 1.11160485,1.66182667 1.77350357,1.22384629 C2.43540228,0.786560011 3.41936581,0.567916873 4.7239134,0.567916873 C5.91000036,0.567916873 6.79327236,0.699796861 7.3737294,0.962168626 C7.95344606,1.2252345 8.3621352,1.5597932 8.59831607,1.96445653 C8.83523731,2.36981397 8.95295755,3.11320064 8.95295755,4.19461654 L8.92482315,7.10361142 C8.92482315,7.93167892 8.96702475,8.54179739 9.05216832,8.93466094 C9.13731189,9.32821858 9.29649335,9.74954044 9.53045307,10.1986265 L6.9006273,10.1986265 C6.83103168,10.0334295 6.74588811,9.78771622 6.64445621,9.46287499 C6.60151423,9.31503058 6.56967794,9.21785586 6.55042809,9.1699626 C6.09657584,9.5836493 5.61088729,9.89460842 5.09336246,10.1007577 C4.576578,10.3082951 4.02425536,10.4117168 3.43861566,10.4117168 C2.40430637,10.4117168 1.58914922,10.1486509 0.993144227,9.62251919 C0.39713923,9.09638745 0.0987665424,8.43074056 0.0987665424,7.62696674 C0.0987665424,7.09458805 0.234255877,6.6205142 0.505974925,6.20335698 C0.776213216,5.78689386 1.15676796,5.46760547 1.64541802,5.24549181 C2.13406808,5.02407225 2.83890877,4.8304169 3.7599401,4.66452575 C5.00155547,4.44657672 5.86335649,4.24250979 6.34238162,4.05301907 L6.34238162,3.80452941 C6.34238162,3.32559683 6.21651721,2.98479117 5.96330764,2.78072425 C5.71157882,2.57665732 5.2355152,2.47462385 4.53585716,2.47462385 C4.06275506,2.47462385 3.693306,2.56208111 3.42825036,2.73630151 C3.1639351,2.91052192 2.9499656,3.21662231 2.78486111,3.65390859 L2.78486111,3.65390859 Z" id="Fill-12" fill="#E9F6FF" mask="url(#mask-5)"></path>
                    </g>
                    <mask id="mask-7" fill="white">
                        <use xlink:href="#path-6"></use>
                    </mask>
                    <g id="Clip-15"></g>
                    <polygon id="Fill-14" fill="#E9F6FF" mask="url(#mask-7)" points="78.434998 13.6690137 81.0929582 13.6690137 81.0929582 0.668423306 78.434998 0.668423306"></polygon>
                    <polygon id="Fill-16" fill="#E9F6FF" mask="url(#mask-7)" points="84.7867084 13.6690137 87.4446686 13.6690137 87.4446686 0.668423306 84.7867084 0.668423306"></polygon>
                </g>
            </g>
        </g>
    </g>
</svg>